

Genre:Comedy | Drama
Language:English  http://www.imdb.com/title/tt1524131/
Source:720p.BluRay.x264-aAF

General
Complete name :Knucklehead.2010.720p.BRRip.H264.Feel-Free
Format : MPEG-4
Format profile : Base Media
Codec ID : mp42
File size : 1.39 GiB
Duration : 1h 40mn
Overall bit rate : 1 987 Kbps
Video #1
Codec ID : avc1
Codec ID/Info : Advanced Video Coding
Duration : 1h 40mn
Bit rate mode : Variable
Bit rate : 1 505 Kbps
Width : 1 280 pixels
Height : 696 pixels
Display aspect ratio : 16:9
Frame rate mode : Constant
Frame rate : 23.976 fps
Resolution : 24 bits
Colorimetry : 4:2:0
Scan type : Progressive
Bits/(Pixel*Frame) : 0.070
Stream size : 1.05 GiB (76%)
Audio #2
ID : 2
Format : AAC
Format/Info : Advanced Audio Codec
Format version : Version 4
Format profile : LC
Format settings, SBR : No
Codec ID : 40
Duration : 1h 40mn
Bit rate mode : Constant
Bit rate : 477 Kbps
Nominal bit rate : 480 Kbps
Channel(s) : 6 channels
Channel positions : Front: L C R, Rear: L R, LFE
Sampling rate : 48.0 KHz
Resolution : 16 bits
Stream size : 342 MiB (24%)
Plot:
After con artist Eddie Sullivan (Feuerstein) incurs a large debt with a local criminal ringleader, he creates a get-rich-quick scheme and enlists a sweet gentle giant named Walter (Wight) as his unwitting accomplice. Walter's orphanage -- the only home he's ever known -- also needs funds desperately

